<?xml version="1.0" standalone="no"?>
<!DOCTYPE svg PUBLIC "-//W3C//DTD SVG 20010904//EN"
 "http://www.w3.org/TR/2001/REC-SVG-20010904/DTD/svg10.dtd">
<svg version="1.0" xmlns="http://www.w3.org/2000/svg"
 width="1024.000000pt" height="1024.000000pt" viewBox="0 0 1024.000000 1024.000000"
 preserveAspectRatio="xMidYMid meet">
<metadata>
Created by potrace 1.14, written by Peter Selinger 2001-2017
</metadata>
<g transform="translate(0.000000,1024.000000) scale(0.100000,-0.100000)"
fill="#000000" stroke="none">
<path d="M5665 8796 c-38 -8 -99 -21 -134 -31 -98 -25 -3635 -1410 -3721
-1456 -172 -93 -361 -262 -467 -419 -105 -156 -187 -357 -218 -534 -31 -180
-16 -432 36 -601 29 -97 1385 -3576 1422 -3650 69 -139 194 -304 299 -396 182
-158 347 -244 594 -309 240 -64 94 -60 2264 -60 2200 0 2059 -4 2270 66 402
134 710 442 845 847 68 205 65 82 65 2263 0 2169 3 2043 -62 2248 -126 399
-446 723 -846 856 -166 55 -217 62 -507 67 l-271 5 -58 152 c-123 318 -239
495 -428 652 -162 136 -329 221 -538 276 -103 27 -133 31 -295 34 -123 2 -202
-1 -250 -10z m455 -395 c300 -78 543 -298 660 -597 22 -56 40 -105 40 -108 0
-3 -676 -6 -1502 -6 l-1503 1 595 233 c1258 493 1208 474 1330 497 81 15 287
4 380 -20z m-3186 -1124 c-181 -188 -285 -382 -351 -652 -16 -64 -18 -212 -23
-1740 l-5 -1671 -509 1306 c-279 718 -517 1339 -528 1380 -29 108 -35 282 -14
393 55 292 229 535 478 671 58 32 1019 415 1042 416 5 0 -36 -46 -90 -103z
m4874 5 c179 -48 316 -125 445 -251 124 -120 208 -262 259 -436 l23 -80 3
-1968 c2 -1895 2 -1971 -17 -2060 -75 -369 -344 -649 -717 -744 -65 -17 -192
-18 -2064 -18 l-1995 0 -85 23 c-340 90 -598 348 -692 692 l-23 85 0 1985 c0
2205 -6 2015 66 2201 87 226 298 435 532 528 73 29 190 58 262 64 22 2 913 3
1980 3 l1940 -2 83 -22z"/>
<path d="M3795 6686 c-42 -18 -92 -73 -106 -114 -29 -87 14 -192 93 -231 l44
-21 1914 0 1914 0 44 21 c66 32 97 86 97 169 0 83 -31 137 -97 169 l-44 21
-1915 0 c-1559 -1 -1920 -3 -1944 -14z"/>
<path d="M5605 5819 c-833 -56 -1524 -664 -1703 -1498 -24 -117 -26 -144 -27
-366 0 -212 3 -254 23 -354 167 -824 826 -1430 1654 -1520 641 -70 1292 215
1686 739 188 249 324 582 362 892 19 147 8 455 -19 593 -189 938 -1025 1579
-1976 1514z m442 -408 c451 -99 826 -390 1027 -796 62 -126 95 -220 128 -367
20 -89 23 -130 23 -298 -1 -163 -5 -212 -23 -297 -24 -109 -71 -251 -106 -321
l-22 -42 -37 49 c-56 73 -232 238 -325 304 -84 60 -252 152 -334 182 -27 10
-48 21 -48 25 0 4 18 34 39 66 81 123 121 256 121 412 0 121 -22 216 -75 327
-95 197 -251 330 -465 397 -63 19 -96 23 -210 23 -114 0 -147 -4 -210 -23
-253 -80 -433 -259 -512 -512 -19 -63 -23 -96 -23 -210 0 -114 4 -147 23 -210
28 -88 62 -157 108 -223 l34 -47 -27 -12 c-275 -114 -492 -269 -674 -480 l-57
-66 -30 66 c-39 89 -77 209 -99 318 -25 125 -25 423 0 549 129 640 615 1104
1262 1205 102 15 407 4 512 -19z m-155 -753 c79 -37 142 -98 181 -177 29 -59
32 -74 32 -156 0 -80 -3 -97 -32 -157 -39 -82 -99 -142 -183 -182 -57 -27 -75
-31 -150 -30 -74 0 -94 4 -150 30 -82 39 -145 101 -184 184 -28 58 -31 75 -30
155 0 75 4 99 26 146 45 99 127 171 231 205 68 22 191 14 259 -18z m94 -1112
c259 -52 519 -196 694 -383 73 -78 160 -193 160 -210 0 -20 -177 -179 -265
-239 -120 -82 -233 -137 -374 -184 -160 -53 -285 -73 -461 -73 -303 0 -579 84
-830 253 -134 90 -277 226 -267 253 3 7 32 49 65 93 204 270 523 455 868 503
89 13 319 5 410 -13z"/>
</g>
</svg>
